# Blender 4.4.0
# www.blender.org
o entity0_brush0
v -16.000000 -0.000001 -16.000000
v -16.000000 0.000001 16.000000
v -16.000000 176.000000 15.999987
v -16.000000 176.000000 -16.000013
v -8.000000 192.000000 7.999986
v -8.000000 192.000000 -8.000014
v 16.000000 176.000000 15.999987
v 16.000000 0.000001 16.000000
v 8.000000 192.000000 7.999986
v 16.000000 -0.000001 -16.000000
v 8.000000 192.000000 -8.000014
v 16.000000 176.000000 -16.000013
vn -1.0000 -0.0000 -0.0000
vn -0.8944 0.4472 -0.0000
vn -0.0000 -0.0000 1.0000
vn -0.0000 0.4472 0.8944
vn -0.0000 -1.0000 -0.0000
vn -0.0000 1.0000 -0.0000
vn -0.0000 0.4472 -0.8944
vn -0.0000 -0.0000 -1.0000
vn 0.8944 0.4472 -0.0000
vn 1.0000 -0.0000 -0.0000
vt 0.500000 -0.000000
vt -0.500000 -0.000000
vt -0.500000 5.500000
vt 0.500000 5.500000
vt -0.250000 6.000000
vt 0.250000 6.000000
vt 0.500000 -0.500000
vt -0.500000 -0.500000
vt -0.500000 0.500000
vt 0.500000 0.500000
vt 0.250000 0.250000
vt -0.250000 0.250000
vt -0.250000 -0.250000
vt 0.250000 -0.250000
s 1
f 1/1/1 2/2/1 3/3/1 4/4/1
f 4/4/2 3/3/2 5/5/2 6/6/2
f 7/4/3 3/3/3 2/2/3 8/1/3
f 9/6/4 5/5/4 3/3/4 7/4/4
f 8/7/5 2/8/5 1/9/5 10/10/5
f 11/11/6 6/12/6 5/13/6 9/14/6
f 12/4/7 4/3/7 6/5/7 11/6/7
f 10/1/8 1/2/8 4/3/8 12/4/8
f 12/4/9 11/6/9 9/5/9 7/3/9
f 8/2/10 10/1/10 12/4/10 7/3/10
o entity0_brush1
v -64.000000 -5.556743 -13.254834
v -64.000000 -5.556741 13.254834
v -64.000000 5.556743 13.254834
v -64.000000 5.556741 -13.254834
v -60.140327 -16.000000 -11.656104
v -60.140327 -15.999999 11.656106
v -60.140327 16.000000 11.656104
v -60.140327 15.999999 -11.656106
v -52.886517 24.513422 -8.651481
v -52.886517 24.513422 8.651477
v -52.886517 -24.513422 8.651481
v -52.886517 -24.513422 -8.651477
v -45.254833 5.556744 32.000000
v -45.254833 -5.556739 32.000000
v -45.254833 -5.556744 -32.000000
v -45.254833 5.556739 -32.000000
v -43.656105 -15.999998 28.140329
v -43.656105 16.000002 28.140326
v -43.656105 15.999998 -28.140329
v -43.656105 -16.000002 -28.140326
v -40.651478 24.513424 20.886515
v -40.651478 -24.513420 20.886518
v -40.651478 24.513420 -20.886518
v -40.651478 -24.513424 -20.886515
v -43.113483 30.070164 -4.603358
v -43.113483 30.070164 4.603353
v -36.603355 30.070164 -11.113485
v -36.603355 30.070164 11.113482
v -32.000000 -32.000000 0.000002
v -32.000000 32.000000 -0.000002
v -20.343895 -15.999998 28.140329
v -23.348522 -24.513420 20.886518
v -23.348522 24.513424 20.886515
v -20.343895 16.000002 28.140326
v -27.396645 30.070164 11.113482
v -18.745167 5.556744 32.000000
v -18.745167 -5.556739 32.000000
v -27.396645 30.070164 -11.113485
v -23.348522 -24.513424 -20.886515
v -23.348522 24.513420 -20.886518
v -20.343895 15.999998 -28.140329
v -20.343895 -16.000002 -28.140326
v -18.745167 -5.556744 -32.000000
v -18.745167 5.556739 -32.000000
v -20.886517 30.070164 4.603353
v -20.886517 30.070164 -4.603358
v -11.113483 -24.513422 8.651481
v -11.113483 -24.513422 -8.651477
v -11.113483 24.513422 8.651477
v -11.113483 24.513422 -8.651481
v -3.859672 15.999999 -11.656106
v -3.859672 16.000000 11.656104
v -3.859672 -15.999999 11.656106
v -3.859672 -16.000000 -11.656104
v 0.000000 5.556743 13.254834
v 0.000000 5.556741 -13.254834
v 0.000000 -5.556741 13.254834
v 0.000000 -5.556743 -13.254834
vn -1.0000 -0.0000 -0.0000
vn -0.9380 -0.3467 -0.0000
vn -0.9380 0.3467 -0.0000
vn -0.7612 0.6486 -0.0000
vn -0.7612 -0.6486 -0.0000
vn -0.7071 -0.0000 0.7071
vn -0.7071 -0.0000 -0.7071
vn -0.6633 -0.3467 0.6633
vn -0.6633 0.3467 0.6633
vn -0.6633 0.3467 -0.6633
vn -0.6633 -0.3467 -0.6633
vn -0.5382 0.6486 0.5382
vn -0.5382 -0.6486 0.5382
vn -0.5382 0.6486 -0.5382
vn -0.5382 -0.6486 -0.5382
vn -0.4943 0.8693 -0.0000
vn -0.3495 0.8693 -0.3495
vn -0.3495 0.8693 0.3495
vn -0.3374 -0.9414 -0.0000
vn -0.2386 -0.9414 0.2386
vn -0.2386 -0.9414 -0.2386
vn -0.1711 0.9853 -0.0000
vn -0.1210 0.9853 -0.1210
vn -0.1210 0.9853 0.1210
vn -0.0000 -0.6486 0.7612
vn -0.0000 0.6486 0.7612
vn -0.0000 -0.9414 0.3374
vn -0.0000 0.8693 0.4943
vn -0.0000 0.9853 0.1711
vn -0.0000 -0.0000 1.0000
vn -0.0000 -0.3467 0.9380
vn -0.0000 0.3467 0.9380
vn -0.0000 0.9853 -0.1711
vn -0.0000 -0.9414 -0.3374
vn -0.0000 0.8693 -0.4943
vn -0.0000 0.6486 -0.7612
vn -0.0000 -0.6486 -0.7612
vn -0.0000 -0.3467 -0.9380
vn -0.0000 0.3467 -0.9380
vn -0.0000 -0.0000 -1.0000
vn 0.1210 0.9853 0.1210
vn 0.1210 0.9853 -0.1210
vn 0.1711 0.9853 -0.0000
vn 0.2386 -0.9414 0.2386
vn 0.2386 -0.9414 -0.2386
vn 0.3374 -0.9414 -0.0000
vn 0.3495 0.8693 0.3495
vn 0.3495 0.8693 -0.3495
vn 0.4943 0.8693 -0.0000
vn 0.5382 0.6486 -0.5382
vn 0.5382 0.6486 0.5382
vn 0.5382 -0.6486 0.5382
vn 0.5382 -0.6486 -0.5382
vn 0.6633 0.3467 0.6633
vn 0.6633 0.3467 -0.6633
vn 0.6633 -0.3467 0.6633
vn 0.6633 -0.3467 -0.6633
vn 0.7071 -0.0000 0.7071
vn 0.7071 -0.0000 -0.7071
vn 0.7612 0.6486 -0.0000
vn 0.7612 -0.6486 -0.0000
vn 0.9380 0.3467 -0.0000
vn 0.9380 -0.3467 -0.0000
vn 1.0000 -0.0000 -0.0000
vt 0.414214 -0.173648
vt -0.414214 -0.173648
vt -0.414214 0.173648
vt 0.414214 0.173648
vt 0.364253 -0.500000
vt -0.364253 -0.500000
vt -0.364253 0.500000
vt 0.364253 0.500000
vt 0.270359 0.766044
vt -0.270359 0.766044
vt -0.270359 -0.766044
vt 0.270359 -0.766044
vt -1.000000 0.173648
vt -1.000000 -0.173648
vt -1.414214 -0.173648
vt -2.000000 -0.173648
vt -2.000000 0.173648
vt -1.414214 0.173648
vt -0.879385 -0.500000
vt -0.879385 0.500000
vt -1.879385 0.500000
vt -1.364253 0.500000
vt -1.364253 -0.500000
vt -1.879385 -0.500000
vt -1.270359 -0.652704
vt -1.652704 -0.270359
vt -1.879385 -0.364253
vt -1.364253 -0.879385
vt -1.364253 0.879385
vt -1.879385 0.364253
vt -1.652704 0.270359
vt -1.270359 0.652704
vt -1.347296 0.143855
vt -1.347296 -0.143855
vt -1.143855 0.347296
vt -1.143855 -0.347296
vt -1.000000 -0.000000
vt -0.635747 -0.500000
vt -1.270359 -0.766044
vt -0.729641 -0.766044
vt -0.729641 0.766044
vt -1.270359 0.766044
vt -0.635747 0.500000
vt -0.729641 -0.652704
vt -0.856145 -0.347296
vt -0.585786 0.173648
vt -0.585786 -0.173648
vt -0.856145 0.347296
vt -0.729641 0.652704
vt -0.652704 -0.143855
vt -0.652704 0.143855
vt -0.347296 -0.270359
vt -0.347296 0.270359
vt -0.120615 0.364253
vt -0.635747 0.879385
vt -0.635747 -0.879385
vt -0.120615 -0.364253
vt 1.000000 0.173648
vt 0.879385 0.500000
vt 0.879385 -0.500000
vt 1.000000 -0.173648
s 1
f 13/15/11 14/16/11 15/17/11 16/18/11
f 17/19/12 18/20/12 14/16/12 13/15/12
f 16/18/13 15/17/13 19/21/13 20/22/13
f 21/23/14 20/22/14 19/21/14 22/24/14
f 23/25/15 18/20/15 17/19/15 24/26/15
f 25/27/16 15/17/16 14/16/16 26/28/16
f 27/29/17 13/30/17 16/31/17 28/32/17
f 26/28/18 14/16/18 18/20/18 29/33/18
f 30/34/19 19/21/19 15/17/19 25/27/19
f 28/32/20 16/31/20 20/35/20 31/36/20
f 32/37/21 17/38/21 13/30/21 27/29/21
f 33/39/22 22/40/22 19/41/22 30/42/22
f 29/42/23 18/41/23 23/40/23 34/39/23
f 31/43/24 20/44/24 21/45/24 35/46/24
f 36/46/25 24/45/25 17/44/25 32/43/25
f 37/47/26 21/45/26 22/40/26 38/48/26
f 35/46/27 21/45/27 37/47/27 39/49/27
f 40/50/28 38/48/28 22/40/28 33/39/28
f 41/51/29 23/40/29 24/45/29
f 34/39/30 23/40/30 41/51/30
f 41/51/31 24/45/31 36/46/31
f 42/51/32 37/47/32 38/48/32
f 39/49/33 37/47/33 42/51/33
f 42/51/34 38/48/34 40/50/34
f 43/52/35 29/37/35 34/53/35 44/54/35
f 45/55/36 33/56/36 30/36/36 46/57/36
f 44/58/37 34/39/37 41/51/37
f 47/59/38 40/50/38 33/39/38 45/58/38
f 42/51/39 40/50/39 47/59/39
f 48/60/40 25/32/40 26/29/40 49/61/40
f 49/61/41 26/29/41 29/37/41 43/52/41
f 46/57/42 30/36/42 25/32/42 48/60/42
f 50/62/43 39/49/43 42/51/43
f 41/51/44 36/46/44 51/63/44
f 52/63/45 35/46/45 39/49/45 50/62/45
f 53/57/46 31/36/46 35/56/46 52/55/46
f 51/54/47 36/53/47 32/37/47 54/52/47
f 54/52/48 32/37/48 27/29/48 55/61/48
f 56/60/49 28/32/49 31/36/49 53/57/49
f 55/61/50 27/29/50 28/32/50 56/60/50
f 57/64/51 42/51/51 47/59/51
f 50/62/52 42/51/52 58/65/52
f 58/65/53 42/51/53 57/64/53
f 44/58/54 41/51/54 59/66/54
f 60/67/55 41/51/55 51/63/55
f 59/66/56 41/51/56 60/67/56
f 61/66/57 57/64/57 47/59/57 45/58/57
f 52/63/58 50/62/58 58/65/58 62/67/58
f 62/67/59 58/65/59 57/64/59 61/66/59
f 63/68/60 53/69/60 52/63/60 62/67/60
f 61/66/61 45/58/61 46/70/61 64/71/61
f 65/71/62 43/70/62 44/58/62 59/66/62
f 60/67/63 51/63/63 54/69/63 66/68/63
f 64/21/64 46/34/64 48/27/64 67/17/64
f 68/18/65 56/72/65 53/73/65 63/22/65
f 69/16/66 49/28/66 43/33/66 65/20/66
f 66/19/67 54/74/67 55/75/67 70/15/67
f 67/17/68 48/27/68 49/28/68 69/16/68
f 70/15/69 55/75/69 56/72/69 68/18/69
f 63/22/70 62/23/70 61/24/70 64/21/70
f 65/20/71 59/25/71 60/26/71 66/19/71
f 68/18/72 63/22/72 64/21/72 67/17/72
f 69/16/73 65/20/73 66/19/73 70/15/73
f 68/18/74 67/17/74 69/16/74 70/15/74
o entity0_brush2
v 0.000000 -5.556743 -13.254834
v 0.000000 -5.556741 13.254834
v 0.000000 5.556743 13.254834
v 0.000000 5.556741 -13.254834
v 3.859672 -16.000000 -11.656104
v 3.859672 -15.999999 11.656106
v 3.859672 16.000000 11.656104
v 3.859672 15.999999 -11.656106
v 11.113483 24.513422 -8.651481
v 11.113483 24.513422 8.651477
v 11.113483 -24.513422 8.651481
v 11.113483 -24.513422 -8.651477
v 18.745167 5.556744 32.000000
v 18.745167 -5.556739 32.000000
v 18.745167 -5.556744 -32.000000
v 18.745167 5.556739 -32.000000
v 20.343895 -15.999998 28.140329
v 20.343895 16.000002 28.140326
v 20.343895 -16.000002 -28.140326
v 20.343895 15.999998 -28.140329
v 23.348522 24.513424 20.886515
v 23.348522 -24.513420 20.886518
v 23.348522 -24.513424 -20.886515
v 23.348522 24.513420 -20.886518
v 20.886517 30.070164 -4.603358
v 20.886517 30.070164 4.603353
v 27.396645 30.070164 11.113482
v 27.396645 30.070164 -11.113485
v 32.000000 -32.000000 0.000002
v 32.000000 32.000000 -0.000002
v 43.656105 -15.999998 28.140329
v 40.651478 -24.513420 20.886518
v 40.651478 24.513424 20.886515
v 43.656105 16.000002 28.140326
v 36.603355 30.070164 11.113482
v 45.254833 5.556744 32.000000
v 45.254833 -5.556739 32.000000
v 36.603355 30.070164 -11.113485
v 40.651478 -24.513424 -20.886515
v 40.651478 24.513420 -20.886518
v 43.656105 -16.000002 -28.140326
v 43.656105 15.999998 -28.140329
v 45.254833 5.556739 -32.000000
v 45.254833 -5.556744 -32.000000
v 43.113483 30.070164 4.603353
v 43.113483 30.070164 -4.603358
v 52.886517 -24.513422 8.651481
v 52.886517 -24.513422 -8.651477
v 52.886517 24.513422 8.651477
v 52.886517 24.513422 -8.651481
v 60.140327 16.000000 11.656104
v 60.140327 -16.000000 -11.656104
v 60.140327 -15.999999 11.656106
v 60.140327 15.999999 -11.656106
v 64.000000 -5.556741 13.254834
v 64.000000 5.556743 13.254834
v 64.000000 5.556741 -13.254834
v 64.000000 -5.556743 -13.254834
vn -1.0000 -0.0000 -0.0000
vn -0.9380 -0.3467 -0.0000
vn -0.9380 0.3467 -0.0000
vn -0.7612 0.6486 -0.0000
vn -0.7612 -0.6486 -0.0000
vn -0.7071 -0.0000 0.7071
vn -0.7071 -0.0000 -0.7071
vn -0.6633 -0.3467 0.6633
vn -0.6633 0.3467 0.6633
vn -0.6633 -0.3467 -0.6633
vn -0.6633 0.3467 -0.6633
vn -0.5382 0.6486 0.5382
vn -0.5382 -0.6486 0.5382
vn -0.5382 -0.6486 -0.5382
vn -0.5382 0.6486 -0.5382
vn -0.4943 0.8693 -0.0000
vn -0.3495 0.8693 0.3495
vn -0.3495 0.8693 -0.3495
vn -0.3374 -0.9414 -0.0000
vn -0.2386 -0.9414 0.2386
vn -0.2386 -0.9414 -0.2386
vn -0.1711 0.9853 -0.0000
vn -0.1210 0.9853 0.1210
vn -0.1210 0.9853 -0.1210
vn -0.0000 -0.6486 0.7612
vn -0.0000 0.6486 0.7612
vn -0.0000 -0.9414 0.3374
vn -0.0000 0.8693 0.4943
vn -0.0000 0.9853 0.1711
vn -0.0000 -0.0000 1.0000
vn -0.0000 -0.3467 0.9380
vn -0.0000 0.3467 0.9380
vn -0.0000 0.9853 -0.1711
vn -0.0000 -0.9414 -0.3374
vn -0.0000 0.8693 -0.4943
vn -0.0000 -0.6486 -0.7612
vn -0.0000 0.6486 -0.7612
vn -0.0000 0.3467 -0.9380
vn -0.0000 -0.3467 -0.9380
vn -0.0000 -0.0000 -1.0000
vn 0.1210 0.9853 0.1210
vn 0.1210 0.9853 -0.1210
vn 0.1711 0.9853 -0.0000
vn 0.2386 -0.9414 0.2386
vn 0.2386 -0.9414 -0.2386
vn 0.3374 -0.9414 -0.0000
vn 0.3495 0.8693 0.3495
vn 0.3495 0.8693 -0.3495
vn 0.4943 0.8693 -0.0000
vn 0.5382 0.6486 0.5382
vn 0.5382 -0.6486 -0.5382
vn 0.5382 -0.6486 0.5382
vn 0.5382 0.6486 -0.5382
vn 0.6633 -0.3467 0.6633
vn 0.6633 0.3467 0.6633
vn 0.6633 0.3467 -0.6633
vn 0.6633 -0.3467 -0.6633
vn 0.7071 -0.0000 0.7071
vn 0.7071 -0.0000 -0.7071
vn 0.7612 -0.6486 -0.0000
vn 0.7612 0.6486 -0.0000
vn 0.9380 0.3467 -0.0000
vn 0.9380 -0.3467 -0.0000
vn 1.0000 -0.0000 -0.0000
vt 0.414214 -0.173648
vt -0.414214 -0.173648
vt -0.414214 0.173648
vt 0.414214 0.173648
vt 0.364253 -0.500000
vt -0.364253 -0.500000
vt -0.364253 0.500000
vt 0.364253 0.500000
vt 0.270359 0.766044
vt -0.270359 0.766044
vt -0.270359 -0.766044
vt 0.270359 -0.766044
vt -1.000000 0.173648
vt -1.000000 -0.173648
vt 0.585786 -0.173648
vt 0.000000 -0.173648
vt 0.000000 0.173648
vt 0.585786 0.173648
vt -0.879385 -0.500000
vt -0.879385 0.500000
vt 0.635747 -0.500000
vt 0.120615 -0.500000
vt 0.120615 0.500000
vt 0.635747 0.500000
vt 0.729641 -0.652704
vt 0.347296 -0.270359
vt 0.120615 -0.364253
vt 0.635747 -0.879385
vt 0.729641 0.652704
vt 0.347296 0.270359
vt 0.120615 0.364253
vt 0.635747 0.879385
vt 0.652704 0.143855
vt 0.652704 -0.143855
vt 0.856145 -0.347296
vt 0.856145 0.347296
vt 1.000000 -0.000000
vt 1.364253 -0.500000
vt 0.729641 -0.766044
vt 1.270359 -0.766044
vt 1.270359 0.766044
vt 0.729641 0.766044
vt 1.364253 0.500000
vt 1.270359 -0.652704
vt 1.143855 -0.347296
vt 1.414214 0.173648
vt 1.414214 -0.173648
vt 1.143855 0.347296
vt 1.270359 0.652704
vt 1.347296 -0.143855
vt 1.347296 0.143855
vt 1.652704 -0.270359
vt 1.652704 0.270359
vt 1.364253 -0.879385
vt 1.879385 -0.364253
vt 1.364253 0.879385
vt 1.879385 0.364253
vt 2.000000 -0.173648
vt 1.879385 -0.500000
vt 1.000000 0.173648
vt 0.879385 0.500000
vt 1.000000 -0.173648
s 1
f 71/76/75 72/77/75 73/78/75 74/79/75
f 75/80/76 76/81/76 72/77/76 71/76/76
f 74/79/77 73/78/77 77/82/77 78/83/77
f 79/84/78 78/83/78 77/82/78 80/85/78
f 81/86/79 76/81/79 75/80/79 82/87/79
f 83/88/80 73/78/80 72/77/80 84/89/80
f 85/90/81 71/91/81 74/92/81 86/93/81
f 84/89/82 72/77/82 76/81/82 87/94/82
f 88/95/83 77/82/83 73/78/83 83/88/83
f 89/96/84 75/97/84 71/91/84 85/90/84
f 86/93/85 74/92/85 78/98/85 90/99/85
f 91/100/86 80/101/86 77/102/86 88/103/86
f 87/103/87 76/102/87 81/101/87 92/100/87
f 93/104/88 82/105/88 75/106/88 89/107/88
f 90/107/89 78/106/89 79/105/89 94/104/89
f 95/108/90 79/105/90 80/101/90 96/109/90
f 97/110/91 96/109/91 80/101/91 91/100/91
f 94/104/92 79/105/92 95/108/92 98/111/92
f 99/112/93 81/101/93 82/105/93
f 92/100/94 81/101/94 99/112/94
f 99/112/95 82/105/95 93/104/95
f 95/108/96 96/109/96 100/112/96
f 100/112/97 96/109/97 97/110/97
f 98/111/98 95/108/98 100/112/98
f 101/113/99 87/96/99 92/114/99 102/115/99
f 103/116/100 91/117/100 88/99/100 104/118/100
f 102/119/101 92/100/101 99/112/101
f 105/120/102 97/110/102 91/100/102 103/119/102
f 100/112/103 97/110/103 105/120/103
f 106/121/104 83/93/104 84/90/104 107/122/104
f 107/122/105 84/90/105 87/96/105 101/113/105
f 104/118/106 88/99/106 83/93/106 106/121/106
f 108/123/107 98/111/107 100/112/107
f 99/112/108 93/104/108 109/124/108
f 110/124/109 94/104/109 98/111/109 108/123/109
f 109/115/110 93/114/110 89/96/110 111/113/110
f 112/118/111 90/99/111 94/117/111 110/116/111
f 113/121/112 86/93/112 90/99/112 112/118/112
f 111/113/113 89/96/113 85/90/113 114/122/113
f 114/122/114 85/90/114 86/93/114 113/121/114
f 115/125/115 100/112/115 105/120/115
f 108/123/116 100/112/116 116/126/116
f 116/126/117 100/112/117 115/125/117
f 102/119/118 99/112/118 117/127/118
f 118/128/119 99/112/119 109/124/119
f 117/127/120 99/112/120 118/128/120
f 119/127/121 115/125/121 105/120/121 103/119/121
f 110/124/122 108/123/122 116/126/122 120/128/122
f 120/128/123 116/126/123 115/125/123 119/127/123
f 119/127/124 103/119/124 104/129/124 121/130/124
f 118/128/125 109/124/125 111/131/125 122/132/125
f 123/130/126 101/129/126 102/119/126 117/127/126
f 124/132/127 112/131/127 110/124/127 120/128/127
f 125/133/128 107/122/128 101/113/128 123/134/128
f 121/82/129 104/95/129 106/88/129 126/78/129
f 127/79/130 113/135/130 112/136/130 124/83/130
f 122/134/131 111/113/131 114/122/131 128/133/131
f 126/78/132 106/88/132 107/89/132 125/77/132
f 128/76/133 114/137/133 113/135/133 127/79/133
f 123/81/134 117/86/134 118/87/134 122/80/134
f 124/83/135 120/84/135 119/85/135 121/82/135
f 127/79/136 124/83/136 121/82/136 126/78/136
f 125/77/137 123/81/137 122/80/137 128/76/137
f 127/79/138 126/78/138 125/77/138 128/76/138
